# xmcd
#
# Track frame offsets:
#	150
#	12562
#	27071
#	36917
#	51434
#	68829
#	82200
#	93684
#	103553
#	116476
#	129724
#	143738
#	154811
#	163553
#	175438
#	189237
#	198183
#	208081
#	218819
#	229801
#	241241
#	250585
#	267291
#	281120
#
# Disc length: 3870 seconds
#
# Revision: 1
# Processed by: cddbd v1.5.2PL0 Copyright (c) Steve Scherf et al.
# Submitted via: audiograbber 1.83.01
#
DISCID=5f0f1c18
DTITLE=Susan McCann - The Blayney Years [CD2)
DYEAR=1900
DGENRE=
TTITLE0=Down River Road
TTITLE1=Daddy Come And Get Me
TTITLE2=My Hi Fi To Cry By
TTITLE3=Good Ole Country Music
TTITLE4=The Awareness Of Nothing
TTITLE5=57 Chevrolet
TTITLE6=My Blue Tears
TTITLE7=Baby Nothing's Wrong With Me
TTITLE8=Mamma Say A Special Prayer For Me
TTITLE9=That Little Boy Of Mine
TTITLE10=More Precious Than Ever Is Jesus
TTITLE11=It Don't Take Much To Make Me Cry
TTITLE12=I'll Meet You On The Other Side Of The Morning
TTITLE13=Take Me Back
TTITLE14=Lie To Linda
TTITLE15=Sparkling Look Of Love
TTITLE16=I Don't Want To Wear Diamonds
TTITLE17=Your Old Handy Man
TTITLE18=Seeing Is Believing
TTITLE19=I'm Not That Good At Goodbye
TTITLE20=Under Cover Lovers
TTITLE21=Isle Of Ireland
TTITLE22=Nickles And Dimes
TTITLE23=All The Love I Have I Give It To You
EXTD=
EXTT0=
EXTT1=
EXTT2=
EXTT3=
EXTT4=
EXTT5=
EXTT6=
EXTT7=
EXTT8=
EXTT9=
EXTT10=
EXTT11=
EXTT12=
EXTT13=
EXTT14=
EXTT15=
EXTT16=
EXTT17=
EXTT18=
EXTT19=
EXTT20=
EXTT21=
EXTT22=
EXTT23=
PLAYORDER=
